<svg width="1920" height="855" viewBox="0 0 1920 855" fill="none" xmlns="http://www.w3.org/2000/svg">
<rect x="-48.8154" y="-4.78052" width="2020.73" height="864.734" fill="#EDAB00" fill-opacity="0.5"/>
<g filter="url(#filter0_f_48_46)">
<path d="M233.106 -83.091C228.21 -87.7164 219.87 -85.9087 218.556 -78.2851C217.842 -72.2212 209.309 -76.4865 205.246 -77.0106C192.482 -81.7465 179.952 -77.7303 167.517 -76.3846C156.404 -74.5742 144.558 -74.541 134.973 -67.334C128.446 -62.7294 123.07 -56.081 119.06 -48.4378C114.61 -40.0729 111.534 -30.5909 109.311 -20.7924C111.632 -24.5899 112.644 -29.9203 115.967 -32.9567C124.659 -42.8032 136.729 -49.3127 149.325 -47.6053C154.831 -46.8107 160.291 -42.5545 162.772 -36.0374C164.303 -33.5863 166.361 -31.9961 168.57 -31.1987L208.266 193.504C209.319 199.462 213.967 203.668 218.688 202.934L229.751 201.214C234.472 200.48 237.426 195.092 236.373 189.133L196.741 -35.2162C201.125 -37.2998 202.667 -43.3379 204.754 -48.1187C208.989 -53.8328 216.217 -52.279 222.134 -52.6781C222.578 -47.6545 224.672 -42.1428 229.076 -40.6848C235.362 -37.6681 242.875 -44.3661 240.602 -52.8305C238.957 -61.4916 237.773 -70.2687 235.82 -78.853C235.185 -80.6131 234.239 -82.023 233.109 -83.0904L233.106 -83.091ZM309.435 -4.49319C309.067 -4.82585 308.694 -5.15043 308.318 -5.46718C295.119 -16.5561 278.447 -16.3321 267.197 -4.91301C262.574 -0.19663 259.192 6.11668 257.41 13.357L211.68 20.4679L217.946 55.9431L261.376 49.1881C262.474 51.4585 263.722 53.623 265.106 55.6567C278.124 74.7271 300.167 78.5264 314.34 64.1455C316.576 61.8672 318.533 59.2046 320.161 56.2256L291.084 51.2133L292.561 8.38346L321.607 13.391C320.212 9.89325 318.471 6.59319 316.428 3.57477C314.362 0.54782 312.01 -2.1641 309.434 -4.49233L309.435 -4.49319ZM173.636 26.384L118.89 34.8967C118.328 33.8839 117.728 32.9016 117.093 31.9533C106.334 16.1933 88.1171 13.0525 76.4055 24.9397C74.5572 26.8225 72.9398 29.023 71.5947 31.4848L95.6243 35.6271L94.4026 71.0248L70.3974 66.886C71.5502 69.7769 72.9891 72.5041 74.6779 74.9988C85.4369 90.759 103.654 93.8993 115.366 82.0119C118.323 78.9994 120.676 75.1868 122.274 70.8197L179.904 61.8584L173.637 26.384L173.636 26.384Z" fill="white"/>
<path d="M670.308 312.523C665.411 307.898 657.072 309.706 655.758 317.329C655.044 323.393 646.51 319.128 642.447 318.604C629.684 313.868 617.154 317.884 604.719 319.23C593.606 321.04 581.759 321.073 572.174 328.28C565.647 332.885 560.272 339.533 556.261 347.177C551.811 355.542 548.735 365.023 546.513 374.822C548.833 371.024 549.845 365.694 553.169 362.658C561.86 352.811 573.93 346.302 586.526 348.009C592.032 348.804 597.492 353.06 599.973 359.577C601.505 362.028 603.562 363.618 605.772 364.416L645.468 589.118C646.52 595.077 651.168 599.283 655.889 598.549L666.953 596.828C671.674 596.094 674.627 590.706 673.574 584.748L633.942 360.398C638.327 358.315 639.869 352.277 641.956 347.496C646.19 341.782 653.419 343.335 659.336 342.936C659.78 347.96 661.874 353.472 666.277 354.93C672.563 357.946 680.077 351.248 677.804 342.784C676.159 334.123 674.974 325.346 673.021 316.761C672.387 315.001 671.44 313.591 670.31 312.524L670.308 312.523ZM746.636 391.121C746.268 390.789 745.896 390.464 745.519 390.147C732.321 379.058 715.649 379.282 704.398 390.701C699.775 395.418 696.393 401.731 694.611 408.971L648.881 416.082L655.148 451.557L698.577 444.802C699.675 447.073 700.923 449.237 702.307 451.271C715.326 470.341 737.368 474.141 751.541 459.76C753.778 457.482 755.735 454.819 757.362 451.84L728.285 446.828L729.763 403.998L758.808 409.005C757.414 405.508 755.673 402.208 753.63 399.189C751.564 396.162 749.212 393.45 746.635 391.122L746.636 391.121ZM610.837 421.998L556.092 430.511C555.529 429.498 554.93 428.516 554.295 427.568C543.536 411.808 525.319 408.667 513.607 420.554C511.759 422.437 510.141 424.637 508.796 427.099L532.826 431.241L531.604 466.639L507.599 462.5C508.752 465.391 510.191 468.119 511.879 470.613C522.638 486.373 540.855 489.514 552.567 477.626C555.524 474.614 557.877 470.801 559.475 466.434L617.105 457.473L610.838 421.998L610.837 421.998Z" fill="white"/>
<path d="M421.268 671.632C416.371 667.007 408.032 668.814 406.718 676.438C406.004 682.502 397.471 678.236 393.408 677.712C380.644 672.976 368.114 676.993 355.679 678.338C344.566 680.149 332.719 680.182 323.135 687.389C316.608 691.993 311.232 698.642 307.222 706.285C302.772 714.65 299.696 724.132 297.473 733.931C299.794 730.133 300.805 724.803 304.129 721.766C312.821 711.92 324.891 705.41 337.487 707.118C342.992 707.912 348.452 712.168 350.933 718.685C352.465 721.137 354.523 722.727 356.732 723.524L396.428 948.227C397.481 954.185 402.129 958.391 406.85 957.657L417.913 955.937C422.634 955.203 425.587 949.815 424.535 943.856L384.903 719.507C389.287 717.423 390.829 711.385 392.916 706.604C397.151 700.89 404.379 702.444 410.296 702.045C410.74 707.068 412.834 712.58 417.238 714.038C423.523 717.055 431.037 710.357 428.764 701.892C427.119 693.231 425.935 684.454 423.982 675.87C423.347 674.11 422.401 672.7 421.271 671.633L421.268 671.632ZM497.597 750.23C497.229 749.897 496.856 749.572 496.479 749.256C483.281 738.167 466.609 738.391 455.359 749.81C450.735 754.526 447.354 760.84 445.572 768.08L399.841 775.191L406.108 810.666L449.538 803.911C450.635 806.181 451.884 808.346 453.268 810.38C466.286 829.45 488.328 833.249 502.502 818.868C504.738 816.59 506.695 813.928 508.323 810.949L479.246 805.936L480.723 763.106L509.768 768.114C508.374 764.616 506.633 761.316 504.59 758.298C502.524 755.271 500.172 752.559 497.596 750.231L497.597 750.23ZM361.798 781.107L307.052 789.62C306.49 788.607 305.89 787.624 305.255 786.676C294.496 770.916 276.279 767.775 264.567 779.663C262.719 781.545 261.102 783.746 259.757 786.208L283.786 790.35L282.564 825.748L258.559 821.609C259.712 824.5 261.151 827.227 262.84 829.722C273.599 845.482 291.816 848.622 303.528 836.735C306.484 833.722 308.838 829.91 310.436 825.543L368.066 816.581L361.799 781.107L361.798 781.107Z" fill="white"/>
<path d="M-36.0374 298.985C-40.934 294.36 -49.2734 296.168 -50.5874 303.791C-51.3011 309.855 -59.8348 305.59 -63.8978 305.066C-76.6611 300.33 -89.1914 304.346 -101.626 305.692C-112.739 307.502 -124.586 307.535 -134.171 314.742C-140.698 319.347 -146.073 325.995 -150.084 333.639C-154.534 342.004 -157.61 351.486 -159.832 361.284C-157.512 357.486 -156.5 352.156 -153.176 349.12C-144.484 339.273 -132.415 332.764 -119.819 334.471C-114.313 335.266 -108.853 339.522 -106.372 346.039C-104.84 348.49 -102.783 350.08 -100.573 350.878L-60.8775 575.58C-59.8248 581.539 -55.1767 585.745 -50.4555 585.011L-39.3925 583.29C-34.6713 582.556 -31.718 577.168 -32.7707 571.21L-72.4025 346.86C-68.0184 344.777 -66.4765 338.739 -64.3893 333.958C-60.1545 328.244 -52.9261 329.797 -47.0094 329.398C-46.5653 334.422 -44.4713 339.934 -40.0677 341.392C-33.782 344.408 -26.2683 337.71 -28.5412 329.246C-30.1863 320.585 -31.3706 311.808 -33.3237 303.223C-33.9583 301.463 -34.9046 300.053 -36.0346 298.986L-36.0374 298.985ZM40.2913 377.583C39.9233 377.251 39.5509 376.926 39.174 376.609C25.9756 365.52 9.30364 365.744 -1.94656 377.163C-6.56996 381.88 -9.95188 388.193 -11.7335 395.433L-57.464 402.544L-51.1973 438.02L-7.76759 431.265C-6.66998 433.535 -5.42179 435.699 -4.03753 437.733C8.9809 456.804 31.023 460.603 45.1963 446.222C47.4328 443.944 49.3897 441.281 51.0172 438.302L21.9403 433.29L23.4177 390.46L52.463 395.467C51.0686 391.97 49.3277 388.67 47.2849 385.651C45.2187 382.624 42.8666 379.912 40.2905 377.584L40.2913 377.583ZM-95.5075 408.46L-150.253 416.973C-150.816 415.96 -151.415 414.978 -152.05 414.03C-162.809 398.27 -181.026 395.129 -192.738 407.016C-194.586 408.899 -196.204 411.099 -197.549 413.561L-173.519 417.704L-174.741 453.101L-198.746 448.962C-197.593 451.853 -196.154 454.581 -194.466 457.075C-183.707 472.835 -165.489 475.976 -153.778 464.088C-150.821 461.076 -148.468 457.263 -146.87 452.896L-89.2397 443.935L-95.5065 408.46L-95.5075 408.46Z" fill="white"/>
<path d="M1072.38 676.347C1067.48 671.722 1059.14 673.53 1057.83 681.153C1057.11 687.217 1048.58 682.952 1044.52 682.428C1031.75 677.692 1019.22 681.708 1006.79 683.054C995.675 684.864 983.829 684.898 974.244 692.104C967.717 696.709 962.341 703.357 958.331 711.001C953.881 719.366 950.805 728.848 948.582 738.646C950.903 734.849 951.915 729.518 955.238 726.482C963.93 716.635 976 710.126 988.596 711.833C994.102 712.628 999.562 716.884 1002.04 723.401C1003.57 725.852 1005.63 727.442 1007.84 728.24L1047.54 952.942C1048.59 958.901 1053.24 963.107 1057.96 962.373L1069.02 960.652C1073.74 959.918 1076.7 954.53 1075.64 948.572L1036.01 724.222C1040.4 722.139 1041.94 716.101 1044.03 711.32C1048.26 705.606 1055.49 707.159 1061.41 706.76C1061.85 711.784 1063.94 717.296 1068.35 718.754C1074.63 721.77 1082.15 715.072 1079.87 706.608C1078.23 697.947 1077.04 689.17 1075.09 680.585C1074.46 678.825 1073.51 677.415 1072.38 676.348L1072.38 676.347ZM1148.71 754.945C1148.34 754.613 1147.97 754.288 1147.59 753.971C1134.39 742.882 1117.72 743.106 1106.47 754.525C1101.84 759.242 1098.46 765.555 1096.68 772.796L1050.95 779.906L1057.22 815.382L1100.65 808.627C1101.74 810.897 1102.99 813.061 1104.38 815.095C1117.4 834.166 1139.44 837.965 1153.61 823.584C1155.85 821.306 1157.8 818.643 1159.43 815.664L1130.35 810.652L1131.83 767.822L1160.88 772.829C1159.48 769.332 1157.74 766.032 1155.7 763.013C1153.63 759.986 1151.28 757.274 1148.71 754.946L1148.71 754.945ZM1012.91 785.822L958.161 794.335C957.599 793.322 956.999 792.34 956.364 791.392C945.605 775.632 927.388 772.491 915.677 784.378C913.828 786.261 912.211 788.461 910.866 790.923L934.895 795.066L933.674 830.463L909.668 826.324C910.821 829.215 912.26 831.943 913.949 834.437C924.708 850.197 942.925 853.338 954.637 841.45C957.594 838.438 959.947 834.625 961.545 830.258L1019.17 821.297L1012.91 785.822L1012.91 785.822Z" fill="white"/>
<path d="M1590.56 -64.8376C1585.66 -69.463 1577.32 -67.6553 1576.01 -60.0317C1575.3 -53.9678 1566.76 -58.2331 1562.7 -58.7572C1549.94 -63.493 1537.41 -59.4769 1524.97 -58.1312C1513.86 -56.3208 1502.01 -56.2875 1492.43 -49.0806C1485.9 -44.476 1480.52 -37.8276 1476.51 -30.1844C1472.06 -21.8195 1468.99 -12.3375 1466.77 -2.53898C1469.09 -6.3365 1470.1 -11.6669 1473.42 -14.7032C1482.11 -24.5498 1494.18 -31.0593 1506.78 -29.3518C1512.28 -28.5572 1517.74 -24.3011 1520.23 -17.784C1521.76 -15.3329 1523.81 -13.7427 1526.02 -12.9452L1565.72 211.757C1566.77 217.716 1571.42 221.922 1576.14 221.188L1587.2 219.467C1591.93 218.733 1594.88 213.345 1593.83 207.387L1554.19 -16.9627C1558.58 -19.0464 1560.12 -25.0845 1562.21 -29.8653C1566.44 -35.5794 1573.67 -34.0256 1579.59 -34.4247C1580.03 -29.4011 1582.13 -23.8894 1586.53 -22.4314C1592.82 -19.4147 1600.33 -26.1126 1598.06 -34.5771C1596.41 -43.2382 1595.23 -52.0153 1593.27 -60.5996C1592.64 -62.3597 1591.69 -63.7696 1590.56 -64.8369L1590.56 -64.8376ZM1666.89 13.7602C1666.52 13.4276 1666.15 13.103 1665.77 12.7862C1652.57 1.69729 1635.9 1.92136 1624.65 13.3404C1620.03 18.0568 1616.65 24.3701 1614.86 31.6104L1569.13 38.7213L1575.4 74.1965L1618.83 67.4415C1619.93 69.7119 1621.18 71.8764 1622.56 73.9101C1635.58 92.9805 1657.62 96.7798 1671.79 82.3989C1674.03 80.1206 1675.99 77.458 1677.61 74.4791L1648.54 69.4667L1650.02 26.6369L1679.06 31.6444C1677.67 28.1467 1675.93 24.8466 1673.88 21.8282C1671.82 18.8012 1669.46 16.0893 1666.89 13.7611L1666.89 13.7602ZM1531.09 44.6374L1476.34 53.1501C1475.78 52.1373 1475.18 51.155 1474.55 50.2067C1463.79 34.4467 1445.57 31.3059 1433.86 43.1931C1432.01 45.0759 1430.39 47.2764 1429.05 49.7382L1453.08 53.8805L1451.86 89.2783L1427.85 85.1394C1429 88.0304 1430.44 90.7575 1432.13 93.2523C1442.89 109.012 1461.11 112.153 1472.82 100.265C1475.78 97.2529 1478.13 93.4402 1479.73 89.0731L1537.36 80.1118L1531.09 44.6374L1531.09 44.6374Z" fill="white"/>
<path d="M2027.76 330.777C2022.87 326.151 2014.53 327.959 2013.21 335.583C2012.5 341.646 2003.96 337.381 1999.9 336.857C1987.14 332.121 1974.61 336.137 1962.17 337.483C1951.06 339.294 1939.21 339.327 1929.63 346.534C1923.1 351.138 1917.73 357.787 1913.72 365.43C1909.27 373.795 1906.19 383.277 1903.97 393.075C1906.29 389.278 1907.3 383.947 1910.62 380.911C1919.31 371.064 1931.38 364.555 1943.98 366.262C1949.49 367.057 1954.95 371.313 1957.43 377.83C1958.96 380.281 1961.02 381.872 1963.23 382.669L2002.92 607.371C2003.97 613.33 2008.62 617.536 2013.34 616.802L2024.41 615.082C2029.13 614.348 2032.08 608.96 2031.03 603.001L1991.4 378.652C1995.78 376.568 1997.32 370.53 1999.41 365.749C2003.64 360.035 2010.87 361.589 2016.79 361.19C2017.23 366.213 2019.33 371.725 2023.73 373.183C2030.02 376.2 2037.53 369.502 2035.26 361.037C2033.61 352.376 2032.43 343.599 2030.48 335.015C2029.84 333.255 2028.89 331.845 2027.76 330.777L2027.76 330.777ZM2104.09 409.374C2103.72 409.042 2103.35 408.717 2102.97 408.401C2089.77 397.312 2073.1 397.536 2061.85 408.955C2057.23 413.671 2053.85 419.984 2052.07 427.225L2006.34 434.336L2012.6 469.811L2056.03 463.056C2057.13 465.326 2058.38 467.491 2059.76 469.524C2072.78 488.595 2094.82 492.394 2109 478.013C2111.23 475.735 2113.19 473.072 2114.82 470.093L2085.74 465.081L2087.22 422.251L2116.26 427.259C2114.87 423.761 2113.13 420.461 2111.08 417.442C2109.02 414.415 2106.67 411.704 2104.09 409.375L2104.09 409.374ZM1968.29 440.252L1913.55 448.764C1912.98 447.752 1912.38 446.769 1911.75 445.821C1900.99 430.061 1882.77 426.92 1871.06 438.807C1869.21 440.69 1867.6 442.891 1866.25 445.352L1890.28 449.495L1889.06 484.893L1865.05 480.754C1866.21 483.645 1867.64 486.372 1869.33 488.867C1880.09 504.627 1898.31 507.767 1910.02 495.88C1912.98 492.867 1915.33 489.054 1916.93 484.687L1974.56 475.726L1968.29 440.252L1968.29 440.252Z" fill="white"/>
<path d="M1778.72 689.885C1773.83 685.26 1765.49 687.068 1764.17 694.691C1763.46 700.755 1754.92 696.49 1750.86 695.966C1738.1 691.23 1725.57 695.246 1713.13 696.592C1702.02 698.402 1690.17 698.435 1680.59 705.642C1674.06 710.247 1668.69 716.895 1664.68 724.539C1660.23 732.904 1657.15 742.386 1654.93 752.184C1657.25 748.387 1658.26 743.056 1661.58 740.02C1670.27 730.173 1682.34 723.664 1694.94 725.371C1700.45 726.166 1705.91 730.422 1708.39 736.939C1709.92 739.39 1711.98 740.98 1714.19 741.778L1753.88 966.48C1754.93 972.439 1759.58 976.645 1764.3 975.911L1775.37 974.19C1780.09 973.456 1783.04 968.068 1781.99 962.11L1742.36 737.76C1746.74 735.677 1748.28 729.639 1750.37 724.858C1754.6 719.144 1761.83 720.697 1767.75 720.298C1768.19 725.322 1770.29 730.834 1774.69 732.292C1780.98 735.308 1788.49 728.61 1786.22 720.146C1784.57 711.485 1783.39 702.708 1781.44 694.123C1780.8 692.363 1779.85 690.953 1778.72 689.886L1778.72 689.885ZM1855.05 768.483C1854.68 768.151 1854.31 767.826 1853.93 767.509C1840.73 756.42 1824.06 756.644 1812.81 768.063C1808.19 772.78 1804.81 779.093 1803.03 786.333L1757.3 793.444L1763.56 828.92L1806.99 822.165C1808.09 824.435 1809.34 826.599 1810.72 828.633C1823.74 847.704 1845.78 851.503 1859.96 837.122C1862.19 834.844 1864.15 832.181 1865.78 829.202L1836.7 824.19L1838.18 781.36L1867.22 786.367C1865.83 782.87 1864.09 779.57 1862.04 776.551C1859.98 773.524 1857.63 770.812 1855.05 768.484L1855.05 768.483ZM1719.25 799.36L1664.51 807.873C1663.94 806.86 1663.34 805.878 1662.71 804.93C1651.95 789.17 1633.73 786.029 1622.02 797.916C1620.17 799.799 1618.56 801.999 1617.21 804.461L1641.24 808.604L1640.02 844.001L1616.01 839.862C1617.17 842.753 1618.6 845.481 1620.29 847.975C1631.05 863.735 1649.27 866.876 1660.98 854.988C1663.94 851.976 1666.29 848.163 1667.89 843.796L1725.52 834.835L1719.25 799.36L1719.25 799.36Z" fill="white"/>
<path d="M1321.42 317.239C1316.52 312.613 1308.18 314.421 1306.87 322.045C1306.15 328.108 1297.62 323.843 1293.56 323.319C1280.79 318.583 1268.26 322.599 1255.83 323.945C1244.71 325.756 1232.87 325.789 1223.28 332.996C1216.76 337.6 1211.38 344.249 1207.37 351.892C1202.92 360.257 1199.84 369.739 1197.62 379.537C1199.94 375.74 1200.95 370.409 1204.28 367.373C1212.97 357.526 1225.04 351.017 1237.64 352.724C1243.14 353.519 1248.6 357.775 1251.08 364.292C1252.61 366.743 1254.67 368.334 1256.88 369.131L1296.58 593.833C1297.63 599.792 1302.28 603.998 1307 603.264L1318.06 601.544C1322.78 600.81 1325.74 595.422 1324.68 589.463L1285.05 365.114C1289.44 363.03 1290.98 356.992 1293.06 352.211C1297.3 346.497 1304.53 348.051 1310.44 347.652C1310.89 352.675 1312.98 358.187 1317.39 359.645C1323.67 362.662 1331.19 355.964 1328.91 347.499C1327.27 338.838 1326.08 330.061 1324.13 321.477C1323.5 319.717 1322.55 318.307 1321.42 317.239L1321.42 317.239ZM1397.75 395.837C1397.38 395.504 1397.01 395.179 1396.63 394.863C1383.43 383.774 1366.76 383.998 1355.51 395.417C1350.88 400.133 1347.5 406.446 1345.72 413.687L1299.99 420.798L1306.26 456.273L1349.69 449.518C1350.78 451.788 1352.03 453.953 1353.42 455.986C1366.44 475.057 1388.48 478.856 1402.65 464.475C1404.89 462.197 1406.84 459.534 1408.47 456.555L1379.39 451.543L1380.87 408.713L1409.92 413.721C1408.52 410.223 1406.78 406.923 1404.74 403.904C1402.67 400.878 1400.32 398.166 1397.74 395.837L1397.75 395.837ZM1261.95 426.714L1207.2 435.226C1206.64 434.214 1206.04 433.231 1205.4 432.283C1194.64 416.523 1176.43 413.382 1164.72 425.269C1162.87 427.152 1161.25 429.353 1159.91 431.814L1183.93 435.957L1182.71 471.355L1158.71 467.216C1159.86 470.107 1161.3 472.834 1162.99 475.329C1173.75 491.089 1191.96 494.229 1203.68 482.342C1206.63 479.329 1208.99 475.516 1210.58 471.149L1268.21 462.188L1261.95 426.714L1261.95 426.714Z" fill="white"/>
<path d="M945.957 -63.6658C941.06 -68.2912 932.721 -66.4835 931.407 -58.8598C930.693 -52.796 922.16 -57.0612 918.097 -57.5854C905.333 -62.3212 892.803 -58.3051 880.368 -56.9594C869.255 -55.1489 857.408 -55.1157 847.823 -47.9088C841.297 -43.3042 835.921 -36.6558 831.911 -29.0126C827.461 -20.6476 824.385 -11.1657 822.162 -1.36717C824.483 -5.16469 825.494 -10.4951 828.818 -13.5314C837.51 -23.378 849.58 -29.8874 862.176 -28.18C867.681 -27.3854 873.141 -23.1293 875.622 -16.6122C877.154 -14.1611 879.212 -12.5709 881.421 -11.7734L921.117 212.929C922.17 218.888 926.818 223.094 931.539 222.359L942.602 220.639C947.323 219.905 950.276 214.517 949.224 208.558L909.592 -15.7909C913.976 -17.8745 915.518 -23.9126 917.605 -28.6935C921.84 -34.4076 929.068 -32.8538 934.985 -33.2529C935.429 -28.2293 937.523 -22.7176 941.927 -21.2595C948.212 -18.2429 955.726 -24.9408 953.453 -33.4053C951.808 -42.0664 950.624 -50.8434 948.671 -59.4278C948.036 -61.1879 947.09 -62.5978 945.96 -63.6651L945.957 -63.6658ZM1022.29 14.932C1021.92 14.5994 1021.55 14.2748 1021.17 13.9581C1007.97 2.8691 991.298 3.09318 980.048 14.5122C975.424 19.2286 972.043 25.5419 970.261 32.7823L924.53 39.8931L930.797 75.3683L974.227 68.6133C975.324 70.8837 976.573 73.0482 977.957 75.082C990.975 94.1523 1013.02 97.9516 1027.19 83.5707C1029.43 81.2925 1031.38 78.6298 1033.01 75.6509L1003.93 70.6385L1005.41 27.8087L1034.46 32.8162C1033.06 29.3185 1031.32 26.0184 1029.28 23C1027.21 19.9731 1024.86 17.2611 1022.28 14.9329L1022.29 14.932ZM886.487 45.8092L831.741 54.3219C831.179 53.3092 830.579 52.3268 829.944 51.3785C819.185 35.6185 800.968 32.4777 789.256 44.3649C787.408 46.2477 785.791 48.4482 784.446 50.91L808.475 55.0523L807.253 90.4501L783.248 86.3112C784.401 89.2022 785.84 91.9294 787.529 94.4241C798.288 110.184 816.505 113.324 828.217 101.437C831.173 98.4247 833.527 94.612 835.124 90.2449L892.755 81.2837L886.488 45.8092L886.487 45.8092Z" fill="white"/>
</g>
<g clip-path="url(#clip0_48_46)">
<path d="M749.332 -152.219C743.31 -144.657 737.814 -136.879 732.824 -128.924L740.038 -124.863L758.113 -114.954L757.978 -114.752L757.995 -114.74L757.932 -114.661L757.894 -114.614L756.446 -112.243L755.23 -110.229L755.247 -110.218L753.845 -107.84L753.748 -107.685L753.642 -107.488L752.504 -105.442L752.302 -105.09L751.181 -103.033L749.886 -100.628L749.738 -100.312L749.7 -100.264L748.641 -98.1877L748.467 -97.8397L747.425 -95.7513L747.251 -95.4033L746.238 -93.3191L746.068 -92.9434L745.101 -90.8514L743.976 -88.3996L743.84 -88.099L743.819 -88.0398L742.9 -85.9125L742.743 -85.5526L741.85 -83.457L741.697 -83.0696L740.837 -80.9504L740.696 -80.5788L739.865 -78.4637L739.724 -78.0921L738.91 -75.9652L738.901 -75.9217L738.769 -75.5936L738 -73.459L737.876 -73.0756L737.124 -70.9292L736.996 -70.5734L736.289 -68.4193L736.229 -68.2138L736.165 -68.0359L735.487 -65.8859L735.363 -65.5025L734.972 -64.2654L706.493 -71.7928C700.222 -51.6049 696.735 -30.9234 695.964 -10.2781L726.089 -9.85071L726.057 -9.22689L726.046 -8.88736L726.05 -8.85977L726.019 -6.6451L725.997 -4.05155L726.005 -3.67262L726.02 -1.4503L726.012 -1.08316L726.056 1.13515L726.063 1.28907L726.064 1.51407L726.137 3.72836L726.159 4.09144L726.248 6.31749L726.265 6.65296L726.269 6.68053L726.4 8.8866L726.424 9.05231L726.425 9.2773L726.586 11.4794L726.607 11.8424L726.784 14.0563L726.821 14.4312L727.04 16.6251L727.048 16.6803L727.077 17L727.312 19.2057L727.35 19.5805L727.614 21.7822L727.664 22.1412L727.958 24.3388L728.024 24.7096L728.33 26.8914L728.384 27.278L728.748 29.4516L728.802 29.8383L729.179 31.9961L729.226 32.2288L729.246 32.3669L729.655 34.5482L729.722 34.919L730.144 37.0846L730.211 37.4554L730.672 39.6301L730.74 39.9022L730.751 39.985L731.232 42.1423L731.328 42.5091L731.885 44.8951L701.872 51.7301C706.557 71.978 713.912 91.6779 723.902 110.292L751.841 95.8619L752.93 97.8076L753.126 98.1464L754.243 100.088L754.28 100.139L754.439 100.427L755.586 102.364L755.781 102.703L756.97 104.621L758.367 106.862L758.591 107.196L759.821 109.094L760.03 109.417L761.289 111.311L761.497 111.634L762.782 113.496L763.007 113.831L764.32 115.689L764.484 115.905L764.541 115.996L765.883 117.85L766.121 118.169L767.476 120.007L767.697 120.314L769.094 122.132L769.332 122.451L770.741 124.254L770.991 124.557L772.43 126.355L772.627 126.595L772.68 126.658L774.144 128.425L774.41 128.739L775.887 130.49L775.924 130.541L776.154 130.805L777.659 132.552L777.922 132.839L779.456 134.582L779.736 134.88L781.295 136.592L781.488 136.804L781.575 136.89L783.176 138.582L783.439 138.869L785.139 140.631L761.018 161.666C771.949 173.249 784.22 184.012 797.798 193.714C802.074 196.77 806.419 199.664 810.826 202.427L818.961 190.62L829.067 175.525L829.261 175.639L829.422 175.729L831.481 176.977L831.493 176.961L833.948 178.392L834.093 178.471L834.303 178.596L836.75 179.972L836.738 179.988L838.855 181.129L841.341 182.457L841.708 182.645L843.835 183.742L844.186 183.918L846.325 184.999L846.692 185.187L849.204 186.385L851.364 187.407L851.744 187.579L853.884 188.562L853.996 188.617L854.265 188.734L856.43 189.685L856.81 189.857L859 190.776L859.364 190.937L861.567 191.84L861.943 191.984L864.143 192.86L864.519 193.005L866.714 193.853L866.76 193.861L867.09 193.998L869.311 194.814L869.687 194.959L871.904 195.747L872.293 195.876L874.522 196.649L874.77 196.727L874.911 196.778L877.149 197.507L877.521 197.624L879.772 198.338L879.817 198.346L880.144 198.455L881.088 198.732L870.227 229.939C891.498 236.712 913.44 240.715 935.481 242.049L937.773 208.545L938.951 208.592L939.354 208.606L941.681 208.704L941.785 208.703L942.084 208.718L944.42 208.772L944.806 208.774L947.126 208.817L947.541 208.815L949.857 208.83L950.255 208.816L952.584 208.815L952.983 208.802L955.32 208.757L955.66 208.752L955.718 208.744L958.052 208.671L958.434 208.646L960.751 208.562L961.162 208.533L963.488 208.406L963.886 208.392L966.208 208.237L966.295 208.225L966.59 208.212L968.925 208.041L969.319 208L971.633 207.79L972.045 207.76L974.355 207.522L974.5 207.502L974.75 207.481L977.451 207.175L977.454 207.202L979.757 206.909L980.164 206.852L982.479 206.543L982.654 206.519L982.858 206.491L985.169 206.154L985.547 206.101L987.854 205.737L988.245 205.668L990.549 205.276L990.881 205.216L990.94 205.208L993.226 204.804L993.617 204.736L995.58 204.349L1002.25 237.94C1024.21 233.863 1045.7 227.104 1066.1 217.764L1063.08 211.653L1050.26 186.637L1050.6 186.478L1050.58 186.466L1050.62 186.446L1050.64 186.458L1052.72 185.463L1053.1 185.284L1055.56 184.082L1057.63 183.032L1058.01 182.853L1060.07 181.791L1060.4 181.604L1060.43 181.6L1062.5 180.494L1062.86 180.303L1064.91 179.186L1065.25 178.983L1067.65 177.636L1067.66 177.648L1069.68 176.479L1069.66 176.468L1072.03 175.081L1072.39 174.862L1074.37 173.643L1074.72 173.424L1076.72 172.189L1077.04 171.974L1079.01 170.699L1079.37 170.481L1081.33 169.194L1081.62 168.984L1081.66 168.964L1083.6 167.638L1083.94 167.408L1086.2 165.84L1088.11 164.474L1088.46 164.228L1090.36 162.851L1090.34 162.839L1092.57 161.177L1092.65 161.109L1092.89 160.935L1094.77 159.49L1095.09 159.248L1096.93 157.781L1097.27 157.523L1099.02 156.095L1122.73 182.703C1137.1 171.053 1150.37 157.745 1162.24 142.838C1164.28 140.27 1166.27 137.682 1168.19 135.066L1157 127.589L1137.94 115.213L1138.1 114.98L1138.19 114.869L1139.61 112.925L1139.67 112.846L1139.86 112.581L1141.46 110.273L1141.48 110.285L1142.83 108.294L1144.4 105.963L1144.62 105.623L1145.93 103.624L1146.01 103.486L1146.15 103.284L1147.42 101.262L1147.64 100.922L1149.09 98.5517L1150.31 96.5378L1150.51 96.1856L1151.69 94.148L1151.73 94.0729L1151.9 93.7961L1153.03 91.7508L1153.24 91.3986L1154.36 89.3416L1155.65 86.9365L1155.8 86.6201L1155.84 86.5726L1156.9 84.4961L1157.07 84.148L1158.11 82.0597L1158.29 81.7116L1159.3 79.6274L1159.47 79.2517L1160.45 77.1716L1160.61 76.8117L1161.56 74.708L1161.67 74.4391L1161.72 74.3482L1162.79 71.861L1162.81 71.8727L1163.69 69.7653L1163.84 69.3778L1164.7 67.2587L1164.86 66.8988L1165.08 66.3335L1199.58 78.1442C1207.49 57.8106 1212.47 36.8302 1214.59 15.7512L1178.33 12.7302L1178.5 11.115L1178.54 10.7162L1178.75 8.50482L1178.78 8.13357L1178.96 5.92624L1178.98 5.54325L1179.15 3.32419L1179.17 2.94116L1179.29 0.741945L1179.3 0.698581L1179.31 0.359054L1179.4 -1.86371L1179.42 -2.2467L1179.48 -4.46541L1179.5 -4.77732L1179.49 -4.83274L1179.52 -7.04734L1179.54 -9.64095L1179.53 -10.0199L1179.53 -12.2304L1179.53 -12.6094L1179.48 -14.8277L1179.47 -14.8829L1179.47 -15.2066L1179.4 -17.4209L1179.38 -17.7839L1179.29 -20.01L1179.27 -20.3454L1179.27 -20.373L1179.14 -22.5791L1179.11 -22.7448L1179.11 -22.9698L1178.95 -25.1719L1178.93 -25.5349L1178.75 -27.7488L1178.72 -28.1237L1178.5 -30.3176L1178.49 -30.3729L1178.46 -30.6925L1178.22 -32.8982L1178.19 -33.273L1177.92 -35.4746L1177.87 -35.8337L1177.58 -38.0313L1177.55 -38.2246L1177.53 -38.3903L1177.21 -40.5839L1177.15 -40.9705L1176.93 -42.3197L1212.36 -47.8692C1208.78 -68.717 1202.38 -89.1094 1193.26 -108.487L1160.88 -95.029L1160.83 -95.1631L1160.72 -95.4153L1160.68 -95.4941L1159.73 -97.5154L1158.6 -99.8914L1158.51 -100.077L1158.43 -100.234L1157.44 -102.236L1157.27 -102.578L1156.25 -104.576L1156.07 -104.903L1155.02 -106.896L1154.84 -107.223L1153.78 -109.2L1153.58 -109.539L1152.48 -111.497L1152.28 -111.835L1151.16 -113.777L1151.13 -113.828L1150.97 -114.116L1149.82 -116.054L1149.63 -116.392L1148.44 -118.31L1147.04 -120.551L1146.82 -120.886L1145.59 -122.783L1145.38 -123.106L1144.13 -124.988L1144.02 -125.142L1143.91 -125.323L1142.62 -127.185L1142.4 -127.52L1141.09 -129.378L1140.9 -129.634L1140.87 -129.685L1139.52 -131.539L1139.3 -131.846L1137.94 -133.684L1137.85 -133.798L1137.71 -134.002L1136.31 -135.821L1136.07 -136.139L1134.66 -137.942L1134.41 -138.245L1132.97 -140.043L1132.72 -140.346L1131.47 -141.861L1158.45 -162.099C1145.6 -177.126 1130.66 -190.926 1113.65 -203.08C1101.95 -211.442 1089.72 -218.701 1077.12 -224.886L1074.94 -221.104L1061.58 -197.418L1061.22 -197.606L1059.08 -198.687L1058.71 -198.876L1056.58 -199.902L1056.2 -200.074L1054.04 -201.096L1053.67 -201.256L1051.52 -202.25L1051.41 -202.305L1051.14 -202.423L1048.97 -203.373L1048.59 -203.546L1046.4 -204.465L1046.04 -204.625L1043.85 -205.517L1043.52 -205.653L1043.46 -205.673L1041.28 -206.537L1040.88 -206.693L1038.69 -207.541L1038.61 -207.573L1038.31 -207.686L1036.09 -208.502L1035.72 -208.647L1033.5 -209.436L1033.11 -209.564L1030.88 -210.337L1030.51 -210.454L1028.27 -211.184L1027.88 -211.313L1025.63 -212.026L1025.52 -212.053L1025.26 -212.143L1023.01 -212.829L1022.61 -212.942L1020.37 -213.6L1019.98 -213.702L1017.71 -214.328L1017.33 -214.429L1015.06 -215.029L1014.66 -215.142L1012.01 -215.798L1009.73 -216.354L1009.33 -216.439L1007.62 -216.819L1015.36 -246.128C993.82 -250.667 971.838 -252.524 949.978 -251.771L950.186 -222.446L950.098 -222.434L949.683 -222.432L947.366 -222.348L947.279 -222.336L946.968 -222.335L944.651 -222.251L944.24 -222.221L941.914 -222.094L941.515 -222.081L939.194 -221.925L939.106 -221.913L938.814 -221.899L936.48 -221.729L936.085 -221.688L933.771 -221.477L933.376 -221.436L931.049 -221.21L930.9 -221.189L930.651 -221.169L928.358 -220.919L927.95 -220.862L925.644 -220.596L925.237 -220.54L922.938 -220.219L922.543 -220.178L920.232 -219.841L919.854 -219.788L917.546 -219.424L917.156 -219.355L914.852 -218.964L914.519 -218.903L914.461 -218.895L912.174 -218.491L911.783 -218.423L909.488 -217.976L909.113 -217.895L906.834 -217.436L906.605 -217.376L906.431 -217.352L904.155 -216.865L904.126 -216.861L903.781 -216.785L901.497 -216.255L901.123 -216.175L898.855 -215.633L898.626 -215.573L898.468 -215.537L896.204 -214.967L895.834 -214.859L893.574 -214.262L893.187 -214.166L885.157 -241.724C864.226 -235.86 843.971 -227.514 824.91 -216.731L839.762 -192.449L837.755 -191.324L835.738 -190.155L835.546 -190.044L835.396 -189.953L833.383 -188.757L833.028 -188.538L831.031 -187.33L830.868 -187.223L830.676 -187.112L828.684 -185.877L828.358 -185.662L826.386 -184.387L826.031 -184.169L824.075 -182.882L823.778 -182.672L823.737 -182.652L821.802 -181.326L821.463 -181.096L819.544 -179.758L819.206 -179.528L817.291 -178.162L816.94 -177.916L815.058 -176.527L814.736 -176.285L812.829 -174.865L812.774 -174.829L812.507 -174.623L810.327 -172.924L808.469 -171.469L808.134 -171.211L806.297 -169.715L805.992 -169.461L804.158 -167.939L803.852 -167.685L802.035 -166.15L801.998 -166.102L801.717 -165.88L799.632 -164.041L797.851 -162.455L797.55 -162.173L795.786 -160.575L795.602 -160.409L795.484 -160.294L793.586 -158.494L773.029 -178.278C764.588 -170.226 756.617 -161.533 749.197 -152.215L749.332 -152.219ZM897.356 -44.2831C904.502 -53.685 914.618 -60.9946 925.738 -65.5049C950.747 -75.9548 981.215 -70.747 1001.28 -53.9002C1020.69 -38.3451 1030.43 -12.5097 1024.85 11.4296C1020.35 33.3795 1002.67 51.9154 980.468 59.1692C952.812 68.9014 920.43 59.6251 901.648 38.8317C880.328 16.808 878.103 -19.9157 897.36 -44.2831L897.356 -44.2831Z" fill="#C5C5C5" stroke="black" stroke-width="10"/>
<path d="M792.866 -120.871C792.004 -119.785 791.155 -118.679 790.317 -117.573C753.348 -70.2067 741.799 -6.2734 759.255 49.663C774.942 101.777 814.838 146.714 866.233 169.923C915.241 192.553 974.028 195.609 1025.58 177.366C1069.26 162.224 1107.43 132.318 1130.99 94.0316C1157.63 51.3185 1166.05 -1.3594 1153.49 -49.2566C1140.92 -99.1786 1106.82 -143.377 1060.63 -169.416C1013.52 -196.532 954.516 -204.55 900.862 -190.158C858.279 -179.003 819.607 -154.551 792.869 -120.865L792.866 -120.871ZM897.359 -44.29C904.506 -53.6924 914.622 -61.0024 925.743 -65.5128C950.753 -75.9632 981.222 -70.7552 1001.28 -53.9076C1020.7 -38.3517 1030.44 -12.5151 1024.86 11.4253C1020.36 33.3762 1002.68 51.913 980.475 59.1671C952.818 68.8999 920.434 59.623 901.651 38.8287C880.33 16.8039 878.105 -19.9215 897.363 -44.29L897.359 -44.29Z" fill="#B4B4B4" stroke="black" stroke-width="10"/>
<path d="M838.025 161.168L1069.75 -121.88L1052.66 -134.5L820.931 148.548L788.642 153.956L746.855 213.451L786.742 240.494L843.724 190.014L838.025 161.168Z" fill="#828A95" stroke="black" stroke-width="10"/>
<path d="M1140.74 200.448L1102.62 157.672L1114.75 101.726L1175.42 88.5686L1222.22 142.851C1222.22 142.851 1241.05 87.1552 1206.63 55.6531C1169.51 21.6888 1102.62 42.4929 1097.42 42.4929L839.145 -197.723C839.145 -197.723 797.532 -238.85 764.596 -202.654C731.661 -166.457 773.279 -138.5 773.279 -138.5L1055.81 82.0036C1055.81 82.0036 1022.87 136.296 1062.74 177.43C1082.27 196.735 1112.47 212.429 1140.74 200.464L1140.74 200.448ZM799.268 -141.776C781.079 -141.776 766.336 -155.787 766.336 -173.052C766.336 -190.317 781.079 -204.311 799.268 -204.311C817.457 -204.311 832.201 -190.318 832.201 -173.052C832.201 -155.787 817.457 -141.776 799.268 -141.776Z" fill="#828A95" stroke="black" stroke-width="10"/>
<path d="M947.895 66.4105L888.716 9.81535L901.984 -21.4218C901.984 -21.4218 915.807 -9.05667 932.609 -21.773C949.411 -34.489 936.226 -52.2289 936.226 -52.2289L1081.46 -228.979C1081.46 -228.979 1115.07 -254.411 1146.91 -232.86C1178.76 -211.31 1168.84 -176.085 1168.84 -176.085L1017.73 1.86964C1017.73 1.86964 997.816 -7.51841 986.677 5.80392C975.537 19.1263 982.562 44.6604 982.562 44.6604L947.894 66.4305L947.895 66.4105Z" fill="#780C00" stroke="black" stroke-width="10"/>
</g>
<defs>
<filter id="filter0_f_48_46" x="-204.746" y="-91.6147" width="2327.01" height="1073.61" filterUnits="userSpaceOnUse" color-interpolation-filters="sRGB">
<feFlood flood-opacity="0" result="BackgroundImageFix"/>
<feBlend mode="normal" in="SourceGraphic" in2="BackgroundImageFix" result="shape"/>
<feGaussianBlur stdDeviation="3" result="effect1_foregroundBlur_48_46"/>
</filter>
<clipPath id="clip0_48_46">
<rect width="545" height="506" fill="white" transform="matrix(-1 0 0 -1 1234 248)"/>
</clipPath>
</defs>
</svg>
